<?xml version="1.0" encoding="utf-8"?>
<!-- Generator: $$$/GeneralStr/196=Adobe Illustrator 27.6.0, SVG Export Plug-In . SVG Version: 6.00 Build 0)  -->
<svg version="1.1" id="圖層_1" xmlns="http://www.w3.org/2000/svg" xmlns:xlink="http://www.w3.org/1999/xlink" x="0px" y="0px"
	 viewBox="0 0 141.7 141.7" style="enable-background:new 0 0 141.7 141.7;" xml:space="preserve">
<style type="text/css">
	.st0{fill:#FFFFFF;}
</style>
<path class="st0" d="M70.9,2.6c-33,0-59.7,26.7-59.7,59.7c0,24.6,14.9,45.7,36.1,54.9c-0.9-5.5-1.6-11.1-1.9-15.5
	c-12.9-8.4-21.4-22.9-21.4-39.4c0-25.9,21.1-46.9,46.9-46.9s46.9,21.1,46.9,46.9c0,16.5-8.6,31-21.4,39.4c-0.2,4.4-0.9,10-1.9,15.5
	c21.2-9.2,36.1-30.3,36.1-54.9C130.6,29.3,103.9,2.6,70.9,2.6z M70.9,85.8c-8.8,0-17.1,2.3-17.1,11.7c0,8.8,3.4,27.8,5.5,35.4
	c1.4,5.1,6.5,6.3,11.6,6.3s10.2-1.2,11.6-6.2c2.1-7.7,5.5-26.6,5.5-35.4C87.9,88.1,79.6,85.8,70.9,85.8z M70.9,77.3
	c8.3,0,14.9-6.7,14.9-14.9s-6.9-14.9-14.9-14.9s-14.9,6.7-14.9,14.9S62.6,77.3,70.9,77.3z M109.3,62.3c0-21.2-17.2-38.4-38.4-38.4
	S32.5,41.1,32.5,62.3c0,12,5.6,22.5,14.1,29.6c1.3-3.4,3.8-6.9,8.5-9.3c0,0,0.1,0,0.1,0c-6.1-4.7-10-11.9-10-20.2
	c0-14.1,11.5-25.6,25.6-25.6s25.6,11.5,25.6,25.6c0,8.2-4,15.5-10,20.2c0,0,0.1,0,0.1,0c4.8,2.4,7.3,6,8.5,9.3
	C103.7,84.8,109.3,74.3,109.3,62.3z"/>
</svg>
